<svg xmlns="http://www.w3.org/2000/svg" viewBox="0 0 108 108" width="512" height="512">
  <rect width="108" height="108" fill="#0B0D10"/>
  <path fill="#3A2118" d="M28,20 L40,20 L40,90 L28,90 Z"/>
  <path fill="#3A2118" d="M18,32 L28,20 L28,40 L18,45 Z"/>
  <path fill="#3A2118" d="M48,20 L96,20 L96,32 L48,32 Z"/>
  <path fill="#3A2118" d="M84,20 L96,20 L96,55 L84,55 Z"/>
  <path fill="#3A2118" d="M48,49 L96,49 L96,61 L48,61 Z"/>
  <path fill="#3A2118" d="M48,55 L60,55 L60,90 L48,90 Z"/>
  <path fill="#3A2118" d="M48,78 L96,78 L96,90 L48,90 Z"/>
  <path fill="#FF6B35" d="M46.1,35.1 A4.7,4.7 0 1,0 55.5,35.1 A4.7,4.7 0 1,0 46.1,35.1 Z"/>
  <path stroke="#FF6B35" stroke-width="5" stroke-linecap="round" d="M50.85,41.4 L50.85,55.58"/>
  <path stroke="#FF6B35" stroke-width="5" stroke-linecap="round" d="M50.85,44.55 L36.68,36.68"/>
  <path stroke="#FF6B35" stroke-width="5" stroke-linecap="round" d="M50.85,44.55 L65.03,36.68"/>
  <path stroke="#FF6B35" stroke-width="5" stroke-linecap="round" d="M50.85,55.58 L38.25,69.75"/>
  <path stroke="#FF6B35" stroke-width="5" stroke-linecap="round" d="M50.85,55.58 L63.45,69.75"/>
</svg>
